HIERARCHY
ROOT Hips
{
	OFFSET 0.000000 0.000000 0.000000
	CHANNELS 6 Xposition Yposition Zposition Zrotation Yrotation Xrotation 
	JOINT LowerBack
	{
		OFFSET 0.000000 0.000000 0.000000
		CHANNELS 3 Zrotation Yrotation Xrotation
		JOINT Spine
		{
			OFFSET 0.028270 2.035590 -0.193380
			CHANNELS 3 Zrotation Yrotation Xrotation
			JOINT Spine1
			{
				OFFSET 0.056720 2.048850 -0.042750
				CHANNELS 3 Zrotation Yrotation Xrotation
				JOINT Neck
				{
					OFFSET 0.000000 0.000000 0.000000
					CHANNELS 3 Zrotation Yrotation Xrotation
					JOINT Neck1
					{
						OFFSET -0.054170 1.746240 0.172020
						CHANNELS 3 Zrotation Yrotation Xrotation
						JOINT Head
						{
							OFFSET 0.104070 1.761360 -0.123970
							CHANNELS 3 Zrotation Yrotation Xrotation
							End Site
							{
								OFFSET 0.000000 0.000000 0.000000
							}
						}
					}
				}
				JOINT LeftShoulder
				{
					OFFSET 0.000000 0.000000 0.000000
					CHANNELS 3 Zrotation Yrotation Xrotation
					JOINT LeftArm
					{
						OFFSET 3.362410 1.200890 -0.311210
						CHANNELS 3 Zrotation Yrotation Xrotation
						JOINT LeftForeArm
						{
							OFFSET 4.983000 -0.000000 -0.000000
							CHANNELS 3 Zrotation Yrotation Xrotation
							JOINT LeftHand
							{
								OFFSET 3.483560 -0.000000 -0.000000
								CHANNELS 3 Zrotation Yrotation Xrotation
								JOINT LeftFingerBase
								{
									OFFSET 0.000000 0.000000 0.000000
									CHANNELS 3 Zrotation Yrotation Xrotation
									JOINT LeftHandIndex1
									{
										OFFSET 0.715260 -0.000000 -0.000000
										CHANNELS 3 Zrotation Yrotation Xrotation
										End Site
										{
											OFFSET 0.000000 0.000000 0.000000
										}
									}
								}
								JOINT LThumb
								{
									OFFSET 0.000000 0.000000 0.000000
									CHANNELS 3 Zrotation Yrotation Xrotation
									End Site
									{
										OFFSET 0.000000 0.000000 0.000000
									}
								}
							}
						}
					}
				}
				JOINT RightShoulder
				{
					OFFSET 0.000000 0.000000 0.000000
					CHANNELS 3 Zrotation Yrotation Xrotation
					JOINT RightArm
					{
						OFFSET -3.136600 1.374050 -0.404650
						CHANNELS 3 Zrotation Yrotation Xrotation
						JOINT RightForeArm
						{
							OFFSET -5.241900 -0.000000 -0.000000
							CHANNELS 3 Zrotation Yrotation Xrotation
							JOINT RightHand
							{
								OFFSET -3.444170 -0.000000 -0.000000
								CHANNELS 3 Zrotation Yrotation Xrotation
								JOINT RightFingerBase
								{
									OFFSET 0.000000 0.000000 0.000000
									CHANNELS 3 Zrotation Yrotation Xrotation
									JOINT RightHandIndex1
									{
										OFFSET -0.622530 -0.000000 -0.000000
										CHANNELS 3 Zrotation Yrotation Xrotation
										End Site
										{
											OFFSET 0.000000 0.000000 0.000000
										}
									}
								}
								JOINT RThumb
								{
									OFFSET 0.000000 0.000000 0.000000
									CHANNELS 3 Zrotation Yrotation Xrotation
									End Site
									{
										OFFSET 0.000000 0.000000 0.000000
									}
								}
							}
						}
					}
				}
			}
		}
	}
}
}
MOTION
Frames: 12
Frame Time: 0.008333
-2.218834 17.221148 0.292728 12.143787 -79.463576 -3.550642 -2.617398 -3.104237 -2.626087 -1.193891 -3.050332 -3.399468 -6.770525 -3.150454 0.231047 10.814776 -9.770490 -7.243327 -3.455908 -0.275592 0.137834 0.000000 0.000000 0.000000 -2.468711 2.377841 1.375606 -70.462627 1.004825 16.383315 -3.109054 -25.978943 0.003541 2.373430 -2.721140 -0.058134 -0.073365 0.025936 -0.000000 0.000000 0.000000 0.000000 0.000000 0.000000 0.000000 16.156132 -7.815734 0.900856 72.328250 -2.732571 -3.478480 3.398603 20.382417 0.025191 -3.399843 15.669899 -0.484469 0.107608 -0.092518 0.000000 0.000000 0.000000 0.000000 0.000000 0.000000 0.000000 
-2.190452 17.216885 0.328662 10.885892 -79.016463 -2.469045 -2.497770 -3.252476 -2.253604 -1.173107 -3.198775 -3.334570 -6.815806 -3.293677 0.191288 10.921264 -9.805874 -7.290777 -3.482372 -0.276434 0.120517 0.000000 0.000000 0.000000 -2.337716 2.073660 1.417566 -70.372878 0.705211 16.804579 -3.095210 -26.289267 0.003472 2.451703 -2.756145 -0.060820 -0.074092 0.029235 -0.000000 0.000000 0.000000 0.000000 0.000000 0.000000 0.000000 16.386122 -7.955819 0.955112 72.382237 -3.181541 -3.827358 3.415494 19.938327 0.024797 -3.255904 15.494636 -0.458998 0.106149 -0.089820 0.000000 0.000000 0.000000 0.000000 0.000000 0.000000 0.000000 
-2.159867 17.213915 0.363952 9.484614 -78.596109 -1.274062 -2.311550 -3.399056 -1.846683 -1.140536 -3.349219 -3.264939 -6.865909 -3.438472 0.145743 11.013812 -9.821988 -7.329937 -3.514262 -0.277726 0.104989 0.000000 0.000000 0.000000 -2.246203 1.755878 1.464138 -70.235054 0.406041 17.248138 -3.079660 -26.628294 0.003404 2.534635 -2.802836 -0.064006 -0.074760 0.032550 0.000000 0.000000 0.000000 0.000000 0.000000 0.000000 0.000000 16.620909 -8.080977 1.011559 72.436401 -3.604108 -4.161482 3.435290 19.451769 0.024341 -3.083779 15.283171 -0.429227 0.104561 -0.087117 0.000000 0.000000 0.000000 0.000000 0.000000 0.000000 0.000000 
-2.127764 17.212677 0.398895 7.926789 -78.209463 0.053410 -2.051491 -3.539058 -1.418151 -1.094934 -3.497097 -3.193621 -6.919529 -3.580499 0.093694 11.085909 -9.810420 -7.353506 -3.550972 -0.279535 0.093447 0.000000 0.000000 0.000000 -2.198405 1.420330 1.514411 -70.054308 0.113550 17.698397 -3.062775 -26.978570 0.003340 2.621846 -2.863673 -0.067692 -0.075350 0.035818 0.000000 0.000000 0.000000 0.000000 0.000000 0.000000 0.000000 16.847622 -8.182097 1.069554 72.495502 -4.008823 -4.499386 3.459300 18.912025 0.023850 -2.884225 15.044715 -0.395658 0.102894 -0.084399 -0.000000 0.000000 0.000000 0.000000 0.000000 0.000000 0.000000 
-2.094751 17.213569 0.433846 6.199845 -77.859695 1.532125 -1.711629 -3.668599 -0.979702 -1.035076 -3.638706 -3.122286 -6.974260 -3.716146 0.038948 11.132595 -9.774505 -7.360310 -3.590729 -0.281758 0.086394 0.000000 0.000000 0.000000 -2.196827 1.078576 1.566492 -69.839676 -0.186216 18.153671 -3.045426 -27.308759 0.003286 2.714685 -2.940092 -0.071980 -0.075912 0.039005 0.000000 0.000000 0.000000 0.000000 0.000000 0.000000 0.000000 17.053571 -8.262366 1.127312 72.561411 -4.388664 -4.838021 3.488573 18.303472 0.023356 -2.665632 14.786093 -0.360089 0.101264 -0.081647 -0.000000 0.000000 0.000000 0.000000 0.000000 0.000000 0.000000 
-2.061214 17.216902 0.469205 4.288354 -77.546354 3.179796 -1.287323 -3.784357 -0.542026 -0.960125 -3.770831 -3.053243 -7.028091 -3.842391 -0.018393 11.149243 -9.709235 -7.345955 -3.632364 -0.284374 0.085215 0.000000 0.000000 0.000000 -2.241779 0.730491 1.619461 -69.604233 -0.494880 18.599628 -3.028233 -27.593177 0.003241 2.812854 -3.031026 -0.076868 -0.076446 0.042080 0.000000 0.000000 0.000000 0.000000 0.000000 0.000000 0.000000 17.226920 -8.315652 1.184271 72.637034 -4.750240 -5.196337 3.524237 17.620270 0.022874 -2.427051 14.508907 -0.322520 0.099721 -0.078857 -0.000000 0.000000 0.000000 0.000000 0.000000 0.000000 0.000000 
-2.027801 17.222821 0.505313 2.193918 -77.266030 5.001348 -0.778266 -3.883982 -0.114955 -0.869977 -3.891011 -2.988168 -7.078764 -3.956932 -0.076554 11.133661 -9.613972 -7.309286 -3.674347 -0.287292 0.090373 0.000000 0.000000 0.000000 -2.330248 0.381754 1.672205 -69.363066 -0.819889 19.026976 -3.012035 -27.804998 0.003202 2.915426 -3.133394 -0.082358 -0.076976 0.045019 0.000000 0.000000 0.000000 0.000000 0.000000 0.000000 0.000000 17.358548 -8.340316 1.239746 72.724363 -5.096912 -5.586161 3.566994 16.860127 0.022414 -2.169420 14.210169 -0.283351 0.098328 -0.076020 -0.000000 0.000000 0.000000 0.000000 0.000000 0.000000 0.000000 
-1.994503 17.231380 0.542695 -0.112522 -77.014911 7.021201 -0.177443 -3.965022 0.299729 -0.763318 -3.996959 -2.927637 -7.124364 -4.057587 -0.135479 11.083255 -9.487742 -7.250107 -3.715273 -0.290405 0.101984 0.000000 0.000000 0.000000 -2.462313 0.035252 1.724384 -69.130978 -1.168253 19.425913 -2.997153 -27.923161 0.003162 3.019916 -3.240589 -0.088249 -0.077487 0.047832 0.000000 0.000000 0.000000 0.000000 0.000000 0.000000 0.000000 17.439032 -8.333301 1.294083 72.823964 -5.429090 -6.022740 3.617568 16.023794 0.021973 -1.891888 13.884659 -0.242681 0.097136 -0.073155 -0.000000 0.000000 0.000000 0.000000 0.000000 0.000000 0.000000 
-1.961818 17.242358 0.581476 -2.596248 -76.786514 9.211706 0.505437 -4.027082 0.696236 -0.641874 -4.087622 -2.872269 -7.163146 -4.143437 -0.193189 11.000271 -9.333210 -7.171302 -3.753829 -0.293579 0.119280 0.000000 0.000000 0.000000 -2.629564 -0.300352 1.775188 -68.923020 -1.548451 19.791093 -2.984394 -27.930352 0.003116 3.121710 -3.345805 -0.094243 -0.077997 0.050525 0.000000 0.000000 0.000000 0.000000 0.000000 0.000000 0.000000 17.466631 -8.295511 1.346980 72.934929 -5.749469 -6.506513 3.675541 15.121509 0.021541 -1.597609 13.523299 -0.201112 0.096190 -0.070240 -0.000000 0.000000 0.000000 0.000000 0.000000 0.000000 0.000000 
-1.929668 17.255411 0.621828 -5.244839 -76.574330 11.557902 1.265700 -4.069841 1.076074 -0.506431 -4.162196 -2.821696 -7.193974 -4.213759 -0.249433 10.886916 -9.153044 -7.076660 -3.788950 -0.296678 0.141157 0.000000 0.000000 0.000000 -2.827206 -0.619527 1.824581 -68.750821 -1.968038 20.118466 -2.973967 -27.819390 0.003053 3.215019 -3.439499 -0.099738 -0.078488 0.053140 0.000000 0.000000 0.000000 0.000000 0.000000 0.000000 0.000000 17.440164 -8.226835 1.399062 73.055890 -6.059545 -7.040503 3.740311 14.169818 0.021095 -1.287856 13.115888 -0.159141 0.095510 -0.067279 -0.000000 0.000000 0.000000 0.000000 0.000000 0.000000 0.000000 
-1.898040 17.269980 0.663796 -8.036084 -76.371005 14.038234 2.096636 -4.094276 1.442159 -0.358090 -4.221032 -2.775278 -7.216364 -4.268980 -0.304177 10.746288 -8.949388 -6.970846 -3.819949 -0.299583 0.166216 0.000000 0.000000 0.000000 -3.050183 -0.916742 1.873105 -68.621527 -2.431380 20.405076 -2.965992 -27.593067 0.002964 3.292366 -3.512512 -0.104336 -0.078941 0.055734 0.000000 0.000000 0.000000 0.000000 0.000000 0.000000 0.000000 17.360986 -8.126834 1.451120 73.186289 -6.361816 -7.625080 3.810880 13.189986 0.020618 -0.964128 12.654724 -0.117370 0.095094 -0.064273 -0.000000 0.000000 0.000000 0.000000 0.000000 0.000000 0.000000 
-1.866980 17.285341 0.706873 -10.882458 -76.168161 16.568530 2.972587 -4.103843 1.796423 -0.201319 -4.265911 -2.731859 -7.230425 -4.310916 -0.356327 10.586875 -8.732749 -6.860921 -3.846423 -0.302176 0.192358 0.000000 0.000000 0.000000 -3.285704 -1.188774 1.920430 -68.538997 -2.939350 20.649323 -2.960706 -27.263376 0.002849 3.346756 -3.557602 -0.107535 -0.079349 0.058349 0.000000 0.000000 0.000000 0.000000 0.000000 0.000000 0.000000 17.239750 -8.004528 1.503506 73.322696 -6.655654 -8.222125 3.884589 12.209229 0.020077 -0.639618 12.134163 -0.077797 0.094947 -0.061167 -0.000000 0.000000 0.000000 0.000000 0.000000 0.000000 0.000000 
